Coordinates
version=1
nRows=17
nColumns=34
inDegrees=yes

Units are S.I. units (second, meters, Newtons, ...)
If the header above contains a line with 'inDegrees', this indicates whether rotational values are in degrees (yes) or radians (no).

endheader
time	pelvis_tilt	pelvis_list	pelvis_rotation	pelvis_tx	pelvis_ty	pelvis_tz	hip_flexion_r	hip_adduction_r	hip_rotation_r	knee_angle_r	ankle_angle_r	subtalar_angle_r	mtp_angle_r	hip_flexion_l	hip_adduction_l	hip_rotation_l	knee_angle_l	ankle_angle_l	subtalar_angle_l	mtp_angle_l	lumbar_extension	lumbar_bending	lumbar_rotation	arm_flex_r	arm_add_r	arm_rot_r	elbow_flex_r	pro_sup_r	arm_flex_l	arm_add_l	arm_rot_l	elbow_flex_l	pro_sup_l
      5.86666670	     17.06308078	      4.31150659	     -3.74007072	     -0.63810772	      0.50645261	      0.04765208	     66.40059508	     10.41739550	     -8.46237747	     27.43537400	    -16.58108610	    -14.52294498	      0.00000000	     74.62023384	     -3.37784993	      7.86315348	     51.99221549	     36.75997005	      3.56276962	      0.00000000	    -49.72191610	      3.71195372	    -17.55254257	      5.44452479	    -26.38092050	     11.22002455	     73.11621313	     97.45279318	     61.47099610	    -16.55217989	     29.74913648	     43.88590225	     60.40991272
      5.88333330	     17.17896552	      4.62747660	     -2.48962444	     -0.63398128	      0.50645240	      0.04572953	     66.31864951	      9.74652707	     -7.26906269	     27.40413911	    -16.73523563	    -16.24617972	      0.00000000	     74.06145861	     -2.69396268	      7.36632994	     51.36254364	     36.89784744	      5.00081168	      0.00000000	    -48.16746167	      3.79597118	    -16.57089328	      6.01090550	    -27.19447411	     10.40974384	     75.46020930	     97.43558110	     62.27475947	    -16.97626051	     28.02692256	     44.27011223	     61.22404349
      5.90000000	     17.33556167	      5.14912857	     -1.42684881	     -0.64134215	      0.50339376	      0.04570926	     66.58239393	      9.05489846	     -5.74157079	     27.54801497	    -16.80693727	    -16.68099418	      0.00000000	     74.24548425	     -2.08767274	      6.21229955	     51.58248848	     34.52370215	      5.52060970	      0.00000000	    -46.79337199	      3.46141954	    -15.52746283	      7.65732939	    -27.87990238	     10.23736909	     77.24908322	     97.47002447	     64.31256076	    -17.51680999	     27.68753646	     44.79215661	     61.52555046
      5.91666670	     17.41527955	      5.41660060	     -0.37960409	     -0.63508057	      0.50878893	      0.04482087	     66.46006827	      8.57283695	     -3.74512370	     27.76596546	    -17.41297257	    -17.81875531	      0.00000000	     74.11473387	     -1.56377449	      5.40703308	     51.72623351	     32.99213323	      4.66409453	      0.00000000	    -45.26484084	      3.36697419	    -13.42179319	      8.09130216	    -28.91643079	      9.71870436	     78.80863956	     97.50998799	     66.26288465	    -17.55921075	     27.60343418	     46.55266532	     62.22597852
      5.93333330	     16.97533762	      5.55212334	      0.08852965	     -0.63499372	      0.50732026	      0.03825165	     67.61133773	      8.36657194	     -2.72259204	     29.39061390	    -15.92781273	    -18.31182819	      0.00000000	     74.48812767	     -1.28495688	      4.58447615	     51.94785731	     36.05613257	      6.68154472	      0.00000000	    -43.09682691	      3.40211362	    -10.69060259	      9.29440837	    -30.55858837	      9.34621857	     80.07644913	     97.53909173	     68.66645527	    -17.13716292	     27.95018888	     47.94873113	     63.09665827
      5.95000000	     17.99734952	      5.79903092	      0.68920345	     -0.65157322	      0.50171792	      0.03914106	     67.68467546	      7.96237940	     -1.84120722	     30.60510953	    -15.42126786	    -17.39254655	      0.00000000	     73.57742483	     -0.92121908	      3.31059509	     51.38807731	     37.14904051	      7.24346528	      0.00000000	    -42.77209430	      3.18438405	     -8.04644002	     11.75304818	    -32.72257513	      9.97221927	     81.85292049	     97.42494161	     74.73637594	    -15.94133251	     32.04609289	     45.86821737	     64.52926702
      5.96666670	     19.27304479	      6.24279510	      1.39153267	     -0.66076256	      0.50448024	      0.03752833	     67.07337409	      7.19198695	     -0.79395906	     31.39259724	    -15.21616130	    -16.51759345	      0.00000000	     72.29378786	     -0.28486256	      2.34335923	     50.78610689	     37.58175750	      7.06412363	      0.00000000	    -43.04132523	      2.75730988	     -4.57469490	     14.22058871	    -34.85238318	      9.54903588	     83.22848473	     96.71786667	     81.04399733	    -12.98446203	     37.64099050	     43.28518630	     65.50316834
      5.98333330	     19.47411646	      6.31893977	      2.05456131	     -0.64810559	      0.50466424	      0.03170625	     67.88399423	      6.50467739	     -0.41772101	     33.78620664	    -14.58232931	    -17.53438180	      0.00000000	     72.56402187	     -0.05102176	      2.05766015	     51.94722897	     39.89596826	      8.80569540	      0.00000000	    -40.98421709	      2.94398995	      1.83293645	     11.37764431	    -37.58044497	      3.93699990	     86.08143795	     95.21288076	     80.35546957	     -8.55003593	     37.38558518	     49.28659757	     65.82983417
      6.00000000	     19.49278575	      6.41929760	      2.53962801	     -0.65053435	      0.51000194	      0.03131971	     68.03375486	      6.12300944	     -0.11039448	     34.76381888	    -13.75794912	    -17.10503700	      0.00000000	     72.64527384	      0.06833284	      1.46597906	     52.49928049	     43.28966153	     11.32889747	      0.00000000	    -40.74211758	      3.10721009	      4.78702556	     14.33866800	    -38.65394161	      2.55837062	     86.41736758	     94.52607049	     84.44684990	     -7.62920351	     40.74220550	     50.43840690	     66.64026835
      6.01666670	     20.82889622	      6.51456071	      3.13682109	     -0.67012285	      0.51674185	      0.03641213	     66.37423552	      5.61048889	      0.30348114	     34.52987901	    -13.90489200	    -15.93919337	      0.00000000	     70.76010448	      0.36109707	      0.78040111	     51.49833158	     38.43498714	      8.32386355	      0.00000000	    -43.13853544	      2.99387407	      6.59619859	     22.66138909	    -39.36138201	      4.96589662	     83.57381999	     93.63752010	     92.41745982	     -7.05129903	     45.88084897	     46.91314993	     67.13751003
      6.03333330	     20.97821332	      6.58497005	      3.47875547	     -0.65388829	      0.52172958	      0.02988883	     66.08222886	      5.27017066	      0.60687148	     35.03970899	    -13.11965716	    -16.13850148	      0.00000000	     70.30224270	      0.59457379	      0.75827406	     51.43358931	     37.07171726	      8.49090931	      0.00000000	    -44.31337290	      3.52624379	      8.33630687	     29.00635007	    -40.26029847	      6.35092179	     82.03385675	     92.63205887	     95.79911678	     -7.15188622	     46.86767338	     47.88662837	     66.95825705
      6.05000000	     20.17869342	      6.79623744	      3.91704443	     -0.64172798	      0.51574051	      0.02626125	     67.40144432	      4.86376019	      0.32254492	     36.31578727	    -12.38984816	    -16.38097537	      0.00000000	     71.57179008	      0.76827318	      0.14464600	     52.27913379	     37.98085562	     11.80100879	      0.00000000	    -43.43091754	      4.30649270	     10.60599189	     35.22010276	    -42.46030136	      9.92635870	     80.46267895	     91.18528797	     96.65158882	     -8.35887896	     43.83354329	     53.16554932	     67.17316483
      6.06666670	     19.05265561	      6.82339892	      4.42450117	     -0.64179939	      0.52187569	      0.02496840	     68.81682233	      4.54177020	      0.36095331	     38.18178230	    -11.43293715	    -16.93828874	      0.00000000	     72.68522242	      1.06591008	      0.30459366	     52.85465478	     44.24338881	     16.53602422	      0.00000000	    -42.29293843	      5.02131687	     13.38400250	     39.04601637	    -44.58125434	     10.61991589	     79.24346159	     90.76551561	     96.71964661	     -7.87260838	     41.92706880	     56.15123017	     67.92139359
      6.08333330	     18.45274080	      6.62541316	      5.52118696	     -0.63620251	      0.51491132	      0.02310338	     70.35870615	      3.75820707	     -0.05362304	     39.84793506	     -9.96938936	    -16.71117347	      0.00000000	     74.05476652	      1.51550522	      0.35794342	     54.55503547	     45.97376431	     16.81884115	      0.00000000	    -40.97477066	      5.55159017	     14.08147918	     42.51641798	    -44.74275249	     11.55771722	     77.24054847	     90.40978031	    100.43841341	     -7.73986966	     42.82438722	     54.94618533	     69.43036676
      6.10000000	     17.18701966	      6.51989743	      6.55840696	     -0.61861380	      0.51223601	      0.01689377	     72.56087291	      2.87871373	      0.27993319	     42.11516221	     -9.34980363	    -18.05618826	      0.00000000	     76.17602332	      2.09843103	     -0.25072920	     56.88437533	     50.00000000	     17.00901384	      0.00000000	    -39.00334479	      5.89820102	     14.46840996	     44.44549115	    -44.63776116	     11.34126536	     75.94372968	     90.31220187	    104.85823364	     -7.39198747	     45.46249636	     52.80936221	     70.85539763
      6.11666670	     16.36789808	      6.42488670	      7.00417245	     -0.62838574	      0.49932672	      0.01816956	     74.93475684	      2.93080329	      0.60768460	     44.14103787	     -7.47956028	    -16.68168839	      0.00000000	     78.29246808	      2.09092670	     -0.58541933	     59.06339006	     50.00000000	     15.17725540	      0.00000000	    -38.63404328	      5.48723237	     14.60781778	     49.82744598	    -44.22364569	     13.56164541	     74.06066134	     90.20093607	    113.31532565	     -6.26865544	     52.02145693	     46.28019108	     72.58429845
      6.13333330	     15.78893309	      6.37053829	      7.24485844	     -0.63672012	      0.49331583	      0.02221176	     76.45180954	      3.15824436	      1.50426567	     45.12133757	     -6.99502849	    -15.26712653	      0.00000000	     79.64414902	      1.87567717	     -0.77577608	     59.45496792	     50.00000000	     14.51732956	      0.00000000	    -39.33720086	      5.28699161	     15.03310945	     59.14566925	    -43.04482859	     19.11642214	     69.15084357	     89.93178699	    121.89320705	     -4.50568787	     58.90603766	     38.28927640	     73.20925341
